<svg width="300" height="300" viewBox="0 0 300 300" fill="none" xmlns="http://www.w3.org/2000/svg">
<rect width="300" height="300" rx="30" fill="#5EEAD4"/>
<path d="M104.439 222V81.8H133.839V116.2L132.239 135.2H132.839C136.572 131.333 141.106 127.933 146.439 125C151.906 121.933 158.372 120.4 165.839 120.4C177.039 120.4 185.172 124 190.239 131.2C195.439 138.4 198.039 148.267 198.039 160.8V222H168.639V164.6C168.639 157.933 167.506 153.067 165.239 150C163.106 146.933 159.372 145.4 154.039 145.4C150.039 145.4 146.506 146.333 143.439 148.2C140.506 149.933 137.306 152.467 133.839 155.8V222H104.439Z" fill="#18181B"/>
</svg>
