<svg width="411" height="411" viewBox="0 0 411 411" fill="none" xmlns="http://www.w3.org/2000/svg">
<path d="M195.5 5.77351C201.688 2.20085 209.312 2.20085 215.5 5.7735L373.468 96.9765C379.656 100.549 383.468 107.152 383.468 114.297V296.703C383.468 303.848 379.656 310.451 373.468 314.024L215.5 405.226C209.312 408.799 201.688 408.799 195.5 405.226L37.5318 314.023C31.3438 310.451 27.5318 303.848 27.5318 296.703V114.297C27.5318 107.152 31.3438 100.549 37.5318 96.9765L195.5 5.77351Z" fill="#5EEAD4"/>
<path d="M160.439 277V136.8H189.839V171.2L188.239 190.2H188.839C192.572 186.333 197.106 182.933 202.439 180C207.906 176.933 214.372 175.4 221.839 175.4C233.039 175.4 241.172 179 246.239 186.2C251.439 193.4 254.039 203.267 254.039 215.8V277H224.639V219.6C224.639 212.933 223.506 208.067 221.239 205C219.106 201.933 215.372 200.4 210.039 200.4C206.039 200.4 202.506 201.333 199.439 203.2C196.506 204.933 193.306 207.467 189.839 210.8V277H160.439Z" fill="#202023"/>
</svg>
