<svg width="128" height="132" viewBox="0 0 128 132" fill="none" xmlns="http://www.w3.org/2000/svg">
    <g filter="url(#filter0_d_2_25)">
        <path
            d="M78.2439 0.610295L75.4057 47.3863L119.015 64.5401L73.6516 76.2954L70.8134 123.071L45.6153 83.5605L0.251673 95.3158L30.0421 59.1415L4.84402 19.6307L48.4535 36.7846L78.2439 0.610295Z"
            fill="#397DFF" />
        <path
            d="M75.8748 6.63324L73.4094 47.2651L73.3214 48.7155L74.6736 49.2475L112.555 64.1482L73.1499 74.3593L71.7433 74.7238L71.6553 76.1743L69.1898 116.806L47.3016 82.4851L46.5202 81.26L45.1136 81.6245L5.70853 91.8357L31.5859 60.4129L32.5097 59.2912L31.7283 58.0661L9.84007 23.7451L47.7214 38.6458L49.0737 39.1777L49.9974 38.056L75.8748 6.63324Z"
            stroke="black" stroke-width="4" />
    </g>
    <defs>
        <filter id="filter0_d_2_25" x="0.251648" y="0.610291" width="126.764" height="130.461"
            filterUnits="userSpaceOnUse" color-interpolation-filters="sRGB">
            <feFlood flood-opacity="0" result="BackgroundImageFix" />
            <feColorMatrix in="SourceAlpha" type="matrix" values="0 0 0 0 0 0 0 0 0 0 0 0 0 0 0 0 0 0 127 0"
                result="hardAlpha" />
            <feOffset dx="8" dy="8" />
            <feComposite in2="hardAlpha" operator="out" />
            <feColorMatrix type="matrix" values="0 0 0 0 0.223529 0 0 0 0 0.490196 0 0 0 0 1 0 0 0 1 0" />
            <feBlend mode="normal" in2="BackgroundImageFix" result="effect1_dropShadow_2_25" />
            <feBlend mode="normal" in="SourceGraphic" in2="effect1_dropShadow_2_25" result="shape" />
        </filter>
    </defs>
</svg>